<?xml version="1.0" standalone="no"?>
<!DOCTYPE svg PUBLIC "-//W3C//DTD SVG 20010904//EN"
 "http://www.w3.org/TR/2001/REC-SVG-20010904/DTD/svg10.dtd">
<svg version="1.0" xmlns="http://www.w3.org/2000/svg"
 width="270.000000pt" height="270.000000pt" viewBox="0 0 270.000000 270.000000"
 preserveAspectRatio="xMidYMid meet">
<metadata>
Created by potrace 1.11, written by Peter Selinger 2001-2013
</metadata>
<g transform="translate(0.000000,270.000000) scale(0.100000,-0.100000)"
fill="#000000" stroke="none">
<path d="M1406 2620 c-21 -23 -40 -40 -42 -37 -3 2 -6 18 -7 36 -3 38 -8 39
-45 1 -17 -16 -33 -30 -37 -30 -3 0 -11 14 -17 30 l-10 30 -20 -25 c-24 -31
-31 -31 -48 0 -13 24 -14 24 -27 5 -8 -11 -20 -37 -28 -57 l-14 -38 0 31 c-1
50 -27 50 -53 1 l-22 -42 -6 33 c-3 18 -9 33 -15 34 -13 2 -55 -73 -48 -86 3
-5 1 -6 -5 -2 -7 4 -12 12 -12 17 0 6 -6 17 -14 24 -11 12 -15 8 -25 -24 -6
-21 -11 -47 -11 -57 0 -15 -7 -12 -29 16 l-29 34 -7 -47 c-7 -44 -8 -46 -29
-34 -38 21 -57 17 -54 -12 3 -23 0 -26 -26 -23 -52 6 -60 -4 -37 -42 26 -42
26 -47 -1 -38 -13 4 -32 6 -43 6 -11 -1 -29 -2 -39 -3 -17 -1 -16 -5 13 -35
l33 -34 -43 2 c-53 1 -58 -12 -16 -41 l32 -23 -37 0 c-49 0 -74 -10 -56 -21
10 -7 10 -9 -2 -10 -8 0 8 -6 35 -13 l50 -11 -41 -23 c-22 -13 -46 -33 -53
-44 -7 -11 -8 -17 -2 -13 19 11 12 -24 -30 -148 -36 -107 -40 -127 -35 -186 3
-36 8 -104 11 -151 4 -47 13 -115 21 -152 9 -45 11 -75 4 -92 -13 -35 9 -172
33 -203 5 -7 6 -21 2 -30 -16 -43 -16 -93 0 -126 9 -20 14 -48 11 -64 -11 -58
-17 -87 -22 -95 -3 -4 11 -24 30 -44 25 -26 36 -46 36 -66 0 -39 58 -159 110
-228 97 -129 190 -212 298 -263 39 -19 91 -55 117 -80 58 -55 109 -71 230 -72
77 0 98 4 145 27 30 14 73 43 95 63 22 20 60 46 85 59 115 60 139 78 239 176
125 123 158 176 201 325 18 61 33 111 34 112 1 1 14 4 30 7 42 8 75 33 82 64
3 15 7 32 9 38 2 6 -1 30 -5 53 -5 28 -3 58 6 86 13 44 11 85 -6 114 -5 9 -1
33 11 64 14 36 18 62 13 100 -7 64 -28 90 -67 84 -25 -3 -28 -1 -23 18 10 39
29 259 29 335 0 50 -8 100 -23 150 -24 79 -89 210 -123 247 l-20 23 24 21 24
21 -53 -3 -53 -4 34 31 35 32 -30 6 c-17 3 -42 6 -56 6 l-26 0 31 29 c36 33
28 40 -41 35 -35 -2 -36 -1 -22 15 9 10 13 21 9 26 -5 4 -3 6 2 2 6 -3 17 -2
25 4 11 6 7 9 -15 10 -16 1 -37 1 -46 0 -12 -1 -17 5 -15 23 0 13 4 22 7 20 4
-2 9 2 12 10 5 13 -27 14 -80 1 -26 -6 -27 -5 -11 30 15 34 7 39 -36 21 -31
-13 -36 -13 -36 0 0 7 10 24 22 36 19 19 19 21 2 14 -10 -4 -26 -9 -36 -11 -9
-2 -30 -11 -47 -19 -33 -18 -37 -15 -21 14 14 27 -3 33 -44 16 -37 -16 -48
-13 -39 11 5 12 1 14 -18 8 -23 -7 -24 -7 -4 9 19 15 19 16 -10 5 -38 -13 -57
-29 -51 -44 2 -6 -2 -12 -10 -12 -9 0 -14 12 -14 36 0 62 -13 67 -54 21z"/>
<path d="M2040 493 c0 -6 6 -14 13 -16 7 -3 5 -6 -5 -6 -10 -1 -23 -11 -29
-23 -7 -13 -18 -27 -25 -31 -11 -7 -11 -12 2 -32 12 -19 18 -22 29 -12 9 9 10
14 1 19 -8 6 -8 8 1 8 7 0 10 7 6 17 -4 10 -2 14 5 9 6 -3 14 -2 17 4 4 6 1 9
-6 8 -6 -2 -14 3 -16 10 -3 7 1 10 10 6 22 -8 32 16 13 34 -9 9 -16 11 -16 5z"/>
<path d="M1973 377 c-4 -8 -23 -24 -42 -38 -18 -13 -37 -34 -42 -46 -5 -14
-17 -23 -29 -23 -12 0 -20 -7 -20 -17 0 -15 -2 -16 -10 -3 -8 12 -10 10 -10
-8 0 -13 4 -21 9 -17 5 3 12 1 16 -5 4 -6 11 -5 19 3 8 6 12 15 9 20 -2 4 3 7
11 7 24 0 56 37 50 57 -5 15 -4 16 5 3 10 -13 14 -11 31 10 10 14 18 35 17 48
-2 26 -3 27 -14 9z m7 -33 c0 -8 -19 -13 -24 -6 -3 5 1 9 9 9 8 0 15 -2 15 -3z
m-70 -74 c-8 -5 -17 -7 -19 -4 -3 3 1 9 9 14 8 5 17 7 19 4 3 -3 -1 -9 -9 -14z
m-53 -32 c-3 -8 -6 -5 -6 6 -1 11 2 17 5 13 3 -3 4 -12 1 -19z"/>
</g>
</svg>
