<svg fill="none" height="79" viewBox="0 0 280 79" width="280" xmlns="http://www.w3.org/2000/svg" xmlns:xlink="http://www.w3.org/1999/xlink"><linearGradient id="a" gradientUnits="userSpaceOnUse" x1="10.6041" x2="46.8995" y1="68.9237" y2="71.6161"><stop offset="0" stop-color="#009cdc" stop-opacity=".3"/><stop offset="1" stop-color="#009cdc"/></linearGradient><linearGradient id="b"><stop offset="0" stop-color="#59c6d8" stop-opacity=".3"/><stop offset="1" stop-color="#59c6d8"/></linearGradient><linearGradient id="c" gradientUnits="userSpaceOnUse" x1="45.2192" x2="73.1943" xlink:href="#b" y1="74.9577" y2="49.5628"/><linearGradient id="d"><stop offset="0" stop-color="#009cdc"/><stop offset="1" stop-color="#00438c"/></linearGradient><linearGradient id="e" gradientUnits="userSpaceOnUse" x1="73.2602" x2="64.2886" xlink:href="#d" y1="55.3594" y2="9.87898"/><linearGradient id="f" gradientUnits="userSpaceOnUse" x1="8.54801" x2="32.0133" xlink:href="#d" y1="63.2266" y2="63.2266"/><linearGradient id="g" gradientUnits="userSpaceOnUse" x1="10.4447" x2=".47995" y1="37.6651" y2="72.6144"><stop offset="0" stop-color="#009cdc"/><stop offset="1" stop-color="#009cdc" stop-opacity=".3"/></linearGradient><linearGradient id="h" gradientUnits="userSpaceOnUse" x1="-9.85216" x2="22.4449" xlink:href="#b" y1="29.6554" y2="17.1049"/><linearGradient id="i" gradientUnits="userSpaceOnUse" x1="38.2885" x2="72.1299" y1="6.58736" y2="23.4789"><stop offset="0" stop-color="#009cdc"/><stop offset=".9997" stop-color="#009cdc" stop-opacity=".3"/></linearGradient><clipPath id="j"><path d="m0 0h280v79h-280z"/></clipPath><g clip-path="url(#j)"><path d="m51.5058 65.4224h-22.7629l10.7207 13.5778h1.3176 17.1986l10.7208-13.5778z" fill="#fff"/><path d="m76.4176 33.875-10.7207 13.5778-14.191 17.9691h17.1947l.8235-1.0414 10.7207-13.5738z" fill="#fff"/><path d="m76.002 32.0299-3.7017-16.3813-15.4968-7.53532 3.7056 16.38132.1215.5464 5.0663 22.4119 10.7207-13.5778z" fill="#fff"/><path d="m28.7428 65.4223-14.1949-17.9692-3.8272 16.9277.8235 1.0415 10.7207 13.5778h17.1987z" fill="#fff"/><path d="m4.12125 32.5763-.2941 1.2988-3.82715 16.9317 10.7207 13.5738 3.8272-16.9277 5.0662-22.4119z" fill="#fff"/><path d="m24.6295 7.53516-1.1881.57811-15.49291 7.53533-3.82715 16.9277 15.49286-7.5353 20.5082-9.9705z" fill="#fff"/><path d="m56.8033 8.11343-1.1881-.57812-15.4929-7.53531-15.4929 7.53531 15.4929 7.53529 20.5082 9.9706z" fill="#fff"/><path d="m51.5058 65.4224h-22.7629l10.7207 13.5778h1.3176 17.1986l10.7208-13.5778z" fill="url(#a)"/><path d="m76.4176 33.875-10.7207 13.5778-14.191 17.9691h17.1947l.8235-1.0414 10.7207-13.5738z" fill="url(#c)"/><path d="m76.002 32.0299-3.7017-16.3813-15.4968-7.53532 3.7056 16.38132.1215.5464 5.0663 22.4119 10.7207-13.5778z" fill="url(#e)"/><path d="m28.7428 65.4223-14.1949-17.9692-3.8272 16.9277.8235 1.0415 10.7207 13.5778h17.1987z" fill="url(#f)"/><path d="m4.12125 32.5763-.2941 1.2988-3.82715 16.9317 10.7207 13.5738 3.8272-16.9277 5.0662-22.4119z" fill="url(#g)"/><path d="m24.6295 7.53516-1.1881.57811-15.49291 7.53533-3.82715 16.9277 15.49286-7.5353 20.5082-9.9705z" fill="url(#h)"/><path d="m56.8033 8.11343-1.1881-.57812-15.4929-7.53531-15.4929 7.53531 15.4929 7.53529 20.5082 9.9706z" fill="url(#i)"/><g fill="#71717a"><path d="m93.7051 24.4951h2.2241v10.7171l9.9178-10.7171h2.936l-8.235 8.8532 8.777 10.5174h-2.877l-7.4398-9.0216-3.079 3.2147v5.8108h-2.2241z"/><path d="m123.521 29.2876v14.5778h-2.137v-2.3141c-.435.791-1.092 1.4292-1.967 1.9187-.874.4894-1.832.7322-2.881.7322-1.08 0-2.042-.235-2.877-.7048-.835-.4699-1.488-1.1316-1.951-1.9892-.467-.8536-.697-1.8364-.697-2.9484v-9.2722h2.138v8.9942c0 1.2021.34 2.1771 1.025 2.9171.684.744 1.567 1.112 2.651 1.112.819 0 1.575-.1683 2.28-.509.704-.3367 1.258-.7949 1.666-1.3665.407-.5717.613-1.1982.613-1.8756v-9.2722z"/><path d="m137.462 29.8629c1.037.65 1.848 1.5506 2.434 2.7057.59 1.1551.883 2.4669.883 3.9352 0 1.4684-.297 2.784-.883 3.9469-.59 1.1669-1.401 2.0714-2.434 2.7214-1.037.6461-2.188.9711-3.463.9711-1.159 0-2.2-.2663-3.118-.8027-.922-.5365-1.666-1.2922-2.236-2.2711v2.737h-2.137v-19.7112h2.137v7.8665c.57-.975 1.314-1.7346 2.236-2.2711.922-.5364 1.963-.8027 3.118-.8027 1.271 0 2.426.325 3.463.975zm-1.314 11.6607c.752-.4894 1.334-1.1707 1.754-2.0439.419-.8732.625-1.8639.625-2.9759 0-1.1081-.21-2.0949-.625-2.9602-.42-.8654-1.002-1.5428-1.754-2.0283s-1.602-.7322-2.552-.7322-1.805.2467-2.565.7322c-.76.4895-1.349 1.1669-1.765 2.0283-.419.8653-.625 1.8521-.625 2.9602s.21 2.1027.625 2.9759c.42.8771 1.009 1.5545 1.765 2.0439.76.4895 1.615.7322 2.565.7322.954 0 1.804-.2427 2.552-.7322z"/><path d="m152.748 41.747c.882-.3367 1.555-.7517 2.01-1.2412l1.31 1.3822c-.625.6774-1.504 1.2217-2.636 1.6367-1.131.4151-2.228.6226-3.292.6226-1.31 0-2.537-.3289-3.677-.9867s-2.058-1.5741-2.75-2.7488c-.693-1.1747-1.041-2.4864-1.041-3.9313 0-1.4096.328-2.6978.981-3.8647.657-1.1668 1.54-2.0752 2.652-2.7331 1.112-.6578 2.323-.9867 3.633-.9867 2.204 0 3.918.7635 5.145 2.2867s1.84 3.5711 1.84 6.1475h-12.055c.151 1.4488.709 2.6313 1.666 3.5554.958.9202 2.153 1.3822 3.578 1.3822.875-.0117 1.753-.1801 2.636-.5208zm-6.142-9.6833c-.95.8536-1.52 1.9774-1.71 3.3675h9.918c-.151-1.3901-.638-2.5139-1.453-3.3675-.819-.8536-1.927-1.2843-3.336-1.2843-1.33 0-2.47.4268-3.419 1.2843z"/><path d="m174.29 39.448h-11.021l-1.988 4.3903h-2.445l8.718-19.3422h2.444l8.718 19.3422h-2.445l-1.988-4.3903zm-.92-2.0834-4.574-10.1673-4.6 10.1673h9.181z"/><path d="m183.592 43.1351c-1.189-.6967-2.136-1.6299-2.834-2.7998-.699-1.1698-1.048-2.4383-1.048-3.7856s.349-2.6092 1.048-3.7725c.698-1.1633 1.645-2.09 2.834-2.7866 1.189-.6967 2.465-1.0385 3.828-1.0385.994 0 1.955.1906 2.862.5653.913.3746 1.719.9004 2.431 1.5773l-1.498 1.4328c-.497-.5258-1.074-.9399-1.726-1.2356-.651-.3023-1.343-.4535-2.069-.4535-.98 0-1.887.2563-2.72.7755-.832.5192-1.497 1.2159-1.988 2.0966-.49.8807-.732 1.8271-.732 2.8458s.242 1.9848.732 2.8589c.491.8741 1.149 1.5708 1.988 2.0966.833.5257 1.74.7886 2.72.7886.726 0 1.431-.1577 2.103-.4666.671-.3089 1.262-.7492 1.786-1.3079l1.498 1.4393c-.712.6967-1.531 1.2356-2.458 1.63-.934.3943-1.901.5915-2.922.5915-1.363 0-2.639-.3484-3.828-1.0384z"/><path d="m205.608 30.595c1.028 1.0976 1.538 2.5566 1.538 4.3771v8.866h-2.156v-2.2806c-.517.8281-1.262 1.4722-2.229 1.9257-.968.4601-1.968.6901-3.009.6901-1.592 0-2.895-.4206-3.916-1.2684-1.021-.8479-1.524-1.9717-1.524-3.3782 0-.9398.261-1.7811.792-2.5172.531-.7426 1.236-1.3144 2.129-1.7153s1.867-.6047 2.922-.6047c1.497 0 3.109.2695 4.835.815v-.5324c0-1.183-.309-2.182-.92-2.9969-.611-.815-1.652-1.2225-3.109-1.2225-.672 0-1.357.1183-2.056.3549-.698.2366-1.464.5587-2.29.9727l-.866-1.7153c1.921-.9399 3.7-1.4065 5.353-1.4065 1.974 0 3.479.5521 4.5 1.6496zm-2.444 10.9231c.947-.5324 1.558-1.2816 1.826-2.2411v-2.2215c-1.457-.3943-2.955-.5915-4.486-.5915-1.135 0-2.096.2826-2.895.8479-.799.5652-1.195 1.275-1.195 2.1425 0 .8676.349 1.5839 1.047 2.0966.699.5192 1.585.7755 2.66.7755s2.089-.2695 3.036-.8018z"/><path d="m223.879 24.1609v19.6773h-2.156v-2.734c-.578.9793-1.33 1.7285-2.257 2.2674-.933.5324-1.981.8018-3.15.8018-1.282 0-2.451-.322-3.499-.9727-1.048-.6506-1.867-1.551-2.458-2.7143-.598-1.1633-.893-2.4778-.893-3.9434s.295-2.7735.893-3.9302c.591-1.1567 1.417-2.0571 2.458-2.7012s2.21-.9727 3.499-.9727c1.169 0 2.223.2695 3.15.8018.927.5324 1.686 1.2882 2.257 2.2675v-7.8539h2.156zm-4.574 17.3968c.766-.4864 1.364-1.1699 1.787-2.044s.631-1.86.631-2.9707-.215-2.09-.631-2.9575c-.423-.861-1.014-1.5379-1.787-2.0243-.765-.4863-1.632-.7295-2.592-.7295-.961 0-1.82.2432-2.573.7295-.759.4864-1.35 1.1633-1.766 2.0243-.423.861-.631 1.8468-.631 2.9575s.208 2.0966.631 2.9707 1.014 1.551 1.766 2.044c.759.4863 1.619.7295 2.573.7295.953 0 1.82-.2432 2.592-.7295z"/><path d="m236.332 41.7878c.894-.3352 1.565-.7493 2.029-1.2356l1.323 1.3801c-.631.677-1.518 1.2225-2.66 1.63-1.141.4074-2.25.6178-3.324.6178-1.323 0-2.559-.3287-3.714-.9859-1.149-.6572-2.076-1.5708-2.774-2.7472-.699-1.1699-1.048-2.4843-1.048-3.9302s.329-2.6946.994-3.8579 1.552-2.0769 2.673-2.7341c1.122-.6572 2.344-.9858 3.667-.9858 2.223 0 3.956.7623 5.192 2.2805s1.854 3.5688 1.854 6.1385h-12.17c.154 1.4459.712 2.6289 1.685 3.5491.968.9201 2.17 1.3801 3.614 1.3801.88 0 1.766-.1708 2.659-.506zm-6.199-9.6744c-.96.8544-1.538 1.9782-1.726 3.365h10.014c-.154-1.3868-.644-2.5106-1.464-3.365-.826-.8544-1.948-1.2816-3.365-1.2816-1.343 0-2.491.4272-3.452 1.2816z"/><path d="m261.661 29.6619c.806.4798 1.431 1.1436 1.888 1.998.45.8544.678 1.8271.678 2.9115v9.2603h-2.156v-8.9843c0-1.183-.322-2.1491-.96-2.8983-.645-.7493-1.464-1.1239-2.458-1.1239-1.189 0-2.156.3549-2.909 1.0581-.745.7033-1.121 1.6037-1.121 2.6881v9.2603h-2.156v-8.9843c0-1.183-.323-2.1491-.961-2.8983-.644-.7493-1.464-1.1239-2.458-1.1239-1.189 0-2.156.3549-2.908 1.0581-.745.7033-1.122 1.6037-1.122 2.6881v9.2603h-2.155v-14.5575h2.155v2.1425c.383-.7689.954-1.3736 1.713-1.8139.759-.4404 1.625-.6638 2.606-.6638 1.169 0 2.19.3089 3.063.9267.873.6177 1.497 1.4656 1.887 2.5369.228-1.0319.772-1.8666 1.625-2.5041s1.867-.9595 3.036-.9595c1.014 0 1.928.2366 2.734.7163z"/><path d="m266.354 48.4324.517-1.8008c.497.2432 1.081.368 1.753.368.497 0 .913-.092 1.236-.2826.329-.1906.631-.5258.92-1.0121l.866-1.8008-6.474-14.6102h2.391l5.205 12.1062 4.923-12.1062h2.331l-6.791 16.1875c-.497 1.2028-1.114 2.0703-1.84 2.6027-.725.5323-1.618.8149-2.673.8281-.866 0-1.652-.1578-2.357-.4798z"/><path d="m100.53 56.1545c.719.4505 1.286 1.0787 1.697 1.8848.412.806.615 1.7187.615 2.7381s-.203 1.9361-.615 2.7501c-.411.81-.974 1.4421-1.697 1.8965-.7225.4505-1.5251.6757-2.4116.6757-.8067 0-1.5294-.1857-2.1724-.5611-.6429-.3714-1.162-.9009-1.5573-1.5805v1.9045h-1.4895v-13.7225h1.4895v5.4764c.3953-.6796.9144-1.2091 1.5573-1.5805.643-.3714 1.3657-.5571 2.1724-.5571.8905-.004 1.6931.2213 2.4116.6756zm-.9102 8.1158c.5232-.3398.9302-.814 1.2222-1.4224.291-.6085.435-1.3.435-2.0705s-.144-1.458-.435-2.0625c-.292-.6006-.699-1.0747-1.2222-1.4145-.5231-.3398-1.1141-.5097-1.777-.5097-.6628 0-1.2578.1699-1.785.5097-.5271.3398-.9384.81-1.2299 1.4145s-.4352 1.2881-.4352 2.0625c0 .7745.1437 1.462.4352 2.0705.2915.6084.7028 1.0826 1.2299 1.4224.5272.3398 1.1261.5097 1.785.5097.6629 0 1.2539-.1699 1.777-.5097z"/><path d="m104.108 69.059.36-1.2565c.343.1699.746.2569 1.21.2569.343 0 .627-.0672.854-.1976.224-.1304.435-.3675.635-.7073l.595-1.2564-4.464-10.1862h1.645l3.59 8.4397 3.39-8.4397h1.605l-4.68 11.2886c-.343.8376-.766 1.4421-1.27 1.8175-.503.3714-1.118.565-1.844.5769-.595 0-1.135-.1146-1.626-.3359z"/><path d="m133.211 52.373-6.01 13.4854h-1.685l-6.01-13.4854h1.686l5.179 11.6007 5.159-11.6007z"/><path d="m135.431 52.373h1.55l5.059 9.4039 5.06-9.4039h1.549v13.4854h-1.549v-10.1861l-5.06 9.4038-5.059-9.4038v10.1861h-1.55z"/><path d="m150.678 55.7119h1.585l2.56 8.1869 2.799-8.1869h1.29l2.799 8.1869 2.56-8.1869h1.585l-3.45 10.1506h-1.41l-2.715-8.1078-2.759 8.1078h-1.41z"/><path d="m174.222 56.6249c.707.7665 1.062 1.782 1.062 3.0542v6.1836h-1.485v-1.5883c-.36.5768-.871 1.0233-1.538 1.3434-.666.32-1.357.482-2.072.482-1.098 0-1.997-.2963-2.7-.885-.702-.5888-1.05-1.3751-1.05-2.355 0-.6558.18-1.2406.547-1.7582.364-.5176.855-.9167 1.47-1.1972.615-.2806 1.286-.4228 2.012-.4228 1.031 0 2.145.1896 3.335.569v-.3715c0-.8258-.212-1.5212-.635-2.0901-.423-.569-1.138-.8535-2.141-.8535-.463 0-.934.083-1.417.245-.483.1659-1.006.3912-1.577.6756l-.595-1.1972c1.321-.6519 2.551-.9799 3.689-.9799 1.35-.0039 2.384.3794 3.095 1.1459zm-1.689 7.6139c.655-.3714 1.074-.893 1.262-1.5607v-1.5528c-1.006-.2766-2.037-.4109-3.095-.4109-.779 0-1.446.1975-1.993.5887-.547.3911-.822.889-.822 1.4935 0 .6164.243 1.1024.723 1.462.483.3595 1.094.5413 1.832.5413.743 0 1.438-.1857 2.093-.5611z"/><path d="m181.106 56.0756c.703-.399 1.522-.5966 2.46-.5966v1.3157c-.766 0-1.453.1423-2.052.4307-.603.2885-1.071.6915-1.41 1.2091s-.507 1.1024-.507 1.7583v5.6739h-1.49v-10.1506h1.49v1.9835c.307-.6875.811-1.2249 1.509-1.624z"/><path d="m191.257 64.4285c.615-.237 1.082-.5215 1.398-.8653l.91.9602c-.435.4701-1.05.8495-1.833 1.1379-.786.2884-1.549.4307-2.292.4307-.914 0-1.765-.2292-2.559-.6875-.795-.4584-1.43-1.0945-1.913-1.9124s-.723-1.7306-.723-2.7382c0-.9838.228-1.8768.683-2.6907.455-.81 1.07-1.4462 1.845-1.9045s1.617-.6875 2.528-.6875c1.533 0 2.727.5294 3.582 1.5884.854 1.0589 1.277 2.4853 1.277 4.2791h-8.389c.103 1.0076.491 1.8333 1.162 2.4734.666.6401 1.497.9602 2.487.9602.607.0079 1.222-.1107 1.837-.3438zm-4.277-6.7446c-.662.5966-1.058 1.3789-1.189 2.347h6.904c-.104-.9681-.443-1.7504-1.01-2.347-.567-.5967-1.342-.893-2.321-.893-.93 0-1.721.2963-2.384.893z"/></g></g></svg>